<?xml version="1.0" encoding="UTF-8"?>
<svg width="135.75" height="135.75" viewBox="0 0 135.75 351.14999" xmlns="http://www.w3.org/2000/svg">
 <g transform="translate(474 -772.77)" stroke="#000" stroke-width="3">
  <path d="m-348.32 928.56c-9.0544-14.987-36.697-15.862-57.98-16.846-31.355 0-56.921 7.2883-57.948 16.376" fill="none" stroke-linecap="round" stroke-linejoin="round" stroke-opacity=".10465"/>
  <path d="m-413.56 955.04c-9.1505-0.7769-16.669-1.9787-22.671-3.6235-16.467-4.5131-26.904-12.166-28.526-20.918-0.21133-1.1397-0.3299-21.801-0.3299-57.486 0-48.983 0.0611-55.941 0.50632-57.65 0.60205-2.3114 1.8227-4.6462 3.3806-6.4663l1.134-1.3248 0.0494-7.0102c0.0563-7.9879 0.21954-8.6127 3.0825-11.797 9.3612-10.412 40.89-16.043 69.138-12.348 14.647 1.916 26.49 6.24 32.11 11.723 3.5579 3.4715 3.7183 4.0058 3.7781 12.585l0.05 7.1738 0.98948 1.2004c1.4455 1.7536 2.6176 4.0526 3.1935 6.2635 0.44521 1.7093 0.50632 8.6676 0.50632 57.65 0 35.685-0.11857 56.346-0.3299 57.486-2.1527 11.61-19.356 20.854-44.519 23.922-3.9586 0.4827-18.298 0.8952-21.542 0.6197zm18.001-2.1361c22.236-1.9142 40.158-9.5873 45.086-19.303l1.156-2.2792v-115.97l-0.70619-1.4864c-0.3884-0.8175-1.1815-2.1343-1.7624-2.9263l-1.0562-1.44-1.0823 1.6051c-4.6913 6.9576-20.843 12.645-40.644 14.312-5.0859 0.4281-17.677 0.42964-22.791 3e-3 -14.963-1.2488-28.183-4.8674-35.462-9.7063-2.1261-1.4134-5.0895-4.2335-5.9322-5.6453-0.37878-0.6346-0.43372-0.6151-1.3956 0.49545-0.55073 0.63583-1.4042 1.9736-1.8965 2.9727l-0.89521 1.8166v115.97l1.1561 2.2792c4.8557 9.5733 22.834 17.368 44.451 19.272 4.6958 0.4137 17.126 0.4317 21.774 0.031zm4.9545-129.6c17.347-2.1076 30.135-6.7909 34.891-12.778 1.6597-2.0897 1.9796-3.0563 2.1732-6.5662l0.17304-3.1379-2.1033 2.0502c-4.8959 4.7723-13.114 8.2706-25.059 10.668-8.7928 1.7644-13.234 2.1376-25.433 2.1376s-16.625-0.37205-25.448-2.1385c-11.606-2.3236-19.699-5.7113-24.603-10.298l-2.1369-1.9989v3.0238c0 2.3933 0.14073 3.2996 0.67491 4.3467 2.1085 4.133 7.5488 7.6143 16.501 10.559 6.9885 2.2989 15.083 3.8291 24.277 4.5892 5.3042 0.43852 20.985 0.16418 26.094-0.45652zm0-9.912c14.238-1.7398 24.978-5.0178 31.36-9.5714 7.2404-5.1667 7.3894-11.219 0.3983-16.179-9.4934-6.7353-26.48-10.532-47.117-10.532-17.704 0-32.676 2.774-42.643 7.9005-6.5206 3.354-9.5444 6.7424-9.5444 10.696 0 5.1555 5.9773 9.8736 17.176 13.557 6.9885 2.2989 15.083 3.8291 24.277 4.5892 5.3242 0.44017 20.988 0.16432 26.094-0.45952z"/>
 </g>
</svg>
