<?xml version='1.0' encoding='utf-8'?>
<svg xmlns="http://www.w3.org/2000/svg" version="1.1" width="600px" height="976px" viewBox="0 0 600 976"> <g id="layer1"> <g style="fill:rgb(0,0,0); fill-opacity:1.0; stroke-linejoin: miter"> <path d="M202.8332,364.23935Q220.14435,358.18137,235.45868,384.5265Q249.92792,410.93878,255.05193,455.0386Q259.93988,500.60022,252.67526,546.15466Q244.29472,594.4022,226.6993,613.4142Q206.91075,633.3168,187.3812,605.78754Q168.31067,576.9915,163.31271,516.78467Q159.26479,461.2761,171.87674,414.58722Q183.93382,372.69553,202.77965,364.26068 M201.71945,356.3114Q179.13748,365.32465,165.1002,409.94653Q150.0,460.48938,154.26498,523.6422Q159.80034,590.59937,182.15297,620.051Q204.12448,646.93286,227.8121,623.04004Q248.78906,600.0145,258.0048,548.84406Q266.1401,500.28058,260.7192,450.95593Q255.07094,403.92145,238.82571,376.19867Q222.22906,349.20325,201.83911,356.26642"/> </g> <g style="fill:rgb(0,0,0); fill-opacity:0.17254902; stroke-linejoin: miter"> <path d="M197.26259,365.2298Q177.55185,380.65744,167.68471,427.1529Q158.20705,474.43915,163.12177,526.76135Q169.00545,580.9927,185.99644,608.34796Q203.2525,635.60754,223.22876,623.23206Q243.16591,608.11945,252.93246,563.24756Q262.9291,514.9732,258.2076,460.97943Q252.42264,407.9735,234.09717,377.95972Q217.69952,352.00366,197.49655,365.0686"/> </g> <g style="fill:rgb(0,0,0); fill-opacity:1.0; stroke-linejoin: miter"> <path d="M186.04787,400.45715C185.1742,400.52692,184.3865,400.60867,183.86418,400.69147C180.41078,401.22998,176.84386,402.2282,173.32103,403.63007L173.32117,403.63007Q166.20712,414.79926,160.65103,432.46097Q158.59943,439.32806,156.96385,446.46594L156.96396,446.46594Q151.47702,482.35986,154.26498,523.6422Q154.35797,524.7667,154.45567,525.88074C155.24806,525.66003,156.07076,525.4115,156.93123,525.1335C157.48615,524.9552,157.97008,524.8198,158.092,524.81006C158.10724,524.80884,158.1168,524.80963,158.12018,524.81256C158.21112,524.89014,158.03831,526.853,157.79979,528.46326C157.42928,531.0161,156.85788,533.29333,156.00507,535.5836L155.69438,536.4087L155.52756,536.5491L155.52776,536.5491Q156.52168,545.2759,157.83588,553.28845L157.83603,553.28845L161.7699,552.97815L161.7699,552.97815L162.78535,552.898L162.7854,552.898L168.50941,552.4464C172.81812,552.10474,176.9186,551.7785,180.61346,551.48346C189.62878,550.7634,196.22964,550.22925,197.5499,550.1124L197.55017,550.1124C197.70847,550.09845,197.79074,550.09033,197.7921,550.08875C197.80931,550.0687,197.49652,549.45337,197.08911,548.71375C195.40205,545.6285,194.95097,544.2239,194.41293,540.4346C193.5384,534.31836,194.69485,528.52014,197.46535,525.0127C197.70491,524.7111,198.0189,524.2812,198.16159,524.0626C198.73987,523.1692,204.67215,512.56396,205.0162,511.80212C205.43167,510.87448,205.86777,510.3216,206.4161,509.9955C207.02757,509.6358,208.11224,509.30447,209.38426,509.0805C209.90349,508.99118,210.937,508.88672,212.20184,508.78564C214.67027,508.58853,218.01968,508.40454,220.14624,508.37164C221.29071,508.35696,222.21284,508.3258,222.98775,508.26392C224.87491,508.11322,225.88855,507.78043,227.11276,507.062C228.95677,505.9825,230.15717,504.38953,230.61996,502.40356C230.97685,500.85913,230.96692,499.67365,230.56631,498.07663C230.02583,495.9071,230.0099,494.41132,230.53032,493.14572C230.8691,492.31827,231.15501,491.89056,232.069,490.83844C232.71622,490.0993,233.00291,489.68094,233.18301,489.22412C233.61462,488.14447,233.4048,487.28558,232.50818,486.43433C232.16168,486.10425,232.15085,486.0863,232.27036,485.8132C232.44395,485.39438,233.20645,484.44836,233.8038,483.9112C234.72565,483.07483,234.69461,482.56885,233.63196,481.28848C232.39085,479.7774,231.99765,478.74484,232.33908,477.83252C232.52475,477.32813,232.98744,476.75452,234.27563,475.437C235.80807,473.87396,236.96954,472.02985,236.90755,471.25342C236.87988,470.90714,236.4851,470.56207,235.3883,469.91516C234.98232,469.66516,234.41838,469.32416,234.14069,469.14862C233.65533,468.84845,231.02441,466.4411,229.1243,464.57782C228.14313,463.61108,226.55212,461.84558,226.54166,461.71463C226.53719,461.65845,226.8453,461.15363,227.21436,460.5875C228.1969,459.09662,228.68094,458.20114,229.05304,457.20163C229.34872,456.42468,229.65628,454.96893,229.54578,454.8836C229.54517,454.88275,229.54398,454.8824,229.54245,454.8825C229.50043,454.88586,229.16702,455.2793,228.79764,455.77197C227.56992,457.37653,226.95575,457.82104,225.72107,458.04205L225.13615,458.1453L224.78946,453.56876C224.49553,449.76947,224.39607,448.76053,224.1616,447.59286C223.33061,443.31863,222.10167,440.3095,220.18665,437.7884C219.91196,437.4148,219.20744,436.25653,218.62643,435.22955C217.00981,432.31738,215.82625,430.5852,214.77591,429.57693L214.37816,429.19446L215.1336,427.33566C217.49431,421.52603,217.43927,416.23883,214.98709,412.1788C214.08728,410.69708,213.08629,409.60004,211.56035,408.41312C210.46577,407.5589,209.60626,407.05328,207.78308,406.1537C206.90071,405.7158,205.9259,405.18155,205.62582,404.96075C201.70944,402.13812,196.50217,400.48257,190.84488,400.26587C189.82985,400.22818,187.77226,400.31946,186.04889,400.4571 Z"/> </g> <g style="fill:rgb(0,0,0); fill-opacity:1.0; stroke-linejoin: miter"> <path d="M172.39215,473.68393Q161.85912,526.86646,161.25192,550.8154Q160.73796,563.1274,161.90973,573.38654L161.90987,573.38654Q167.63626,596.60583,176.8264,612.1002L176.82642,612.1002Q180.01736,616.1725,183.75175,619.4651Q193.91534,628.192,203.13281,627.4558Q203.3231,627.4407,203.51309,627.42145Q212.22006,626.2162,223.9365,624.4234Q235.25148,601.4608,235.92511,609.635Q217.12724,562.0409,180.15184,531.1669L172.39948,473.7384L172.39215,473.68393L172.39215,473.68393 Z"/> </g> <g style="fill:rgb(0,0,0); fill-opacity:1.0; stroke-linejoin: miter"> <path d="M364.02545,381.29202C368.1549,381.52228,372.49942,382.35858,376.80603,383.73773C377.87756,384.0753,378.00388,384.09222,379.52463,384.12103C386.20853,384.25375,393.54645,385.65204,399.69116,387.96405C401.79803,388.75632,405.5021,390.52466,407.3926,391.65024C413.7398,395.42053,418.75403,400.34967,422.61188,406.58865C423.24164,407.61264,424.87872,410.66037,425.16327,411.35208L425.29504,411.65942L426.19897,410.8286C428.01642,409.1668,429.4994,408.74133,431.0041,409.43842C431.51196,409.67072,432.3205,410.42026,432.7887,411.09863L433.13733,411.60507L433.77728,411.65097C437.3651,411.91104,438.96625,412.5967,439.8014,414.22675C440.14386,414.90778,440.36395,415.7846,440.37885,416.55896L440.38647,416.95587L441.23383,417.2107C443.815,417.99377,445.25305,419.25385,445.7942,421.20908C445.97034,421.80606,446.0075,422.23148,446.0166,423.20917L446.02106,424.4389L447.0971,425.51242C447.69897,426.0915,448.3322,426.78613,448.51117,427.0345C449.81488,428.85876,450.0,430.92743,449.01465,432.5539C448.60156,433.22995,447.74762,434.13724,447.01227,434.67438L446.3725,435.14172L447.01172,435.65225C448.71326,437.01385,449.6128,438.46838,449.64008,439.8816C449.6574,441.2854,448.67224,442.42764,446.58026,443.4072C445.8797,443.7305,445.83215,443.7799,445.89447,444.00137C445.92627,444.1363,445.9981,444.8515,446.04138,445.5963C446.13055,447.20203,446.0088,447.92096,445.48663,448.96698C444.62878,450.67804,442.93738,451.8534,440.45068,452.44342C439.96863,452.55927,439.45795,452.68533,439.32312,452.72675C439.07275,452.79938,439.16193,452.90405,441.43463,455.27145C445.62488,459.6546,446.89056,461.01498,447.36853,461.70288C447.72693,462.2092,447.9593,462.70822,448.34894,463.83368C449.71338,467.80664,449.885,470.6888,448.88928,473.2837C448.7602,473.62518,448.38715,474.35858,448.07825,474.9165C447.7599,475.47455,447.425,476.18793,447.3344,476.5188C446.7804,478.41772,446.65637,480.52133,447.0091,481.7444C447.1336,482.17773,447.1798,482.56415,447.1494,483.0005C447.09003,483.93115,446.35614,487.0536,445.69104,489.21613C444.93408,491.65155,444.1723,493.32202,442.93073,495.21478C442.39435,496.0289,441.7752,497.06714,441.5515,497.5169C439.90973,500.76343,437.263,502.60583,433.62073,503.0342C431.99756,503.22034,430.03802,503.03546,428.15942,502.5293L427.4975,502.34845L426.6518,503.1782C423.96246,505.83466,420.44415,507.16125,415.39417,507.40378C412.09528,507.56424,408.69952,507.22302,404.3529,506.28027C403.6918,506.13818,403.1283,506.04242,403.09985,506.07202C403.01437,506.1608,403.39188,508.15802,403.80072,509.7866C404.44122,512.3693,405.25986,514.6485,406.36865,516.9124L406.77173,517.7276L408.03748,518.5942C413.12054,522.079,418.4827,526.9817,424.11432,533.31274L425.50983,534.88354L395.2522,535.4956C378.61304,535.82587,364.97443,536.079,364.95462,536.0598C364.93494,536.0409,365.19324,535.37744,365.53613,534.5768C366.95337,531.2379,367.2732,529.7502,367.4393,525.8058C367.71368,519.4387,365.9357,513.60504,362.73444,510.28723C362.45776,510.002,362.09164,509.5927,361.92307,509.383C361.2383,508.52466,354.06833,498.24362,353.6376,497.4967C353.11658,496.58682,352.61255,496.06384,352.01654,495.7849C351.3523,495.47806,350.2051,495.24866,348.87665,495.14825C347.27673,495.03384,341.06403,495.2407,337.75775,495.51746C333.71704,495.86633,332.34937,495.7475,330.4735,494.88315C328.47064,493.96295,327.0763,492.45026,326.3988,490.45886C325.87506,488.90997,325.76453,487.69214,326.01294,486.01205C326.3466,483.73004,326.21048,482.193,325.54736,480.94702C325.11536,480.13223,324.77826,479.72238,323.73273,478.73553C322.99323,478.04285,322.65628,477.64255,322.42487,477.19202C321.87186,476.12793,321.99963,475.2249,322.83313,474.2597C323.15518,473.88562,323.1645,473.86615,323.01404,473.5979C322.7931,473.1858,321.91406,472.29248,321.24615,471.80188C320.21478,471.03735,320.195,470.5149,321.15527,469.0923C322.27527,467.41486,322.57358,466.31494,322.13013,465.4133C321.88806,464.91434,321.35474,464.3727,319.89825,463.1516C318.166,461.7035,316.78586,459.92902,316.7704,459.12567C316.7635,458.76746,317.13354,458.373,318.19342,457.59723C318.58466,457.29926,319.12872,456.89188,319.39587,456.68335C319.86346,456.3257,322.3187,453.58655,324.07916,451.48035C324.98767,450.38797,326.44086,448.41376,326.43823,448.2783C326.43713,448.22015,326.0695,447.73328,325.63293,447.18982C324.4724,445.7597,323.88434,444.8899,323.40054,443.90186C323.01782,443.13458,322.5539,441.6717,322.65845,441.57278C322.6773,441.54333,323.07196,441.9231,323.51703,442.40833C324.9407,443.93024,325.61646,444.32382,326.9062,444.42493L327.5171,444.47128L327.40662,439.73834C327.3213,435.80865,327.32043,434.76282,327.44214,433.5404C327.85953,429.06845,328.81424,425.85455,330.523,423.07156C330.7669,422.66013,331.3719,421.3994,331.86365,420.28607C333.22638,417.13214,334.26453,415.23358,335.2399,414.09155L335.6092,413.6584L334.6444,411.82745C331.62915,406.10468,331.14682,400.6721,333.25006,396.25482C334.02277,394.64218,334.93848,393.41412,336.3838,392.04037C337.42026,391.05197,338.25092,390.44537,340.03064,389.33624C340.89178,388.7968,341.8379,388.1491,342.1234,387.8918C345.85565,384.5954,351.03204,382.36542,356.81674,381.56647C358.38135,381.35236,362.40662,381.19733,364.02545,381.29202 Z"/> </g> <g style="fill:rgb(0,0,0); fill-opacity:1.0; stroke-linejoin: miter"> <path d="M397.79123,520.3737Q371.80432,521.41565,357.42236,547.29407Q345.1527,569.55457,332.97186,636.5227L332.97186,636.5227Q391.79706,619.782,436.8059,573.7259Q442.2489,567.90765,447.23724,561.90894L447.2401,561.9089Q444.29822,553.4419,440.72125,547.0337Q425.84943,520.90106,397.94095,520.37103L397.79123,520.3737 Z"/> </g> <g style="fill:rgb(0,0,0); fill-opacity:1.0; stroke-linejoin: miter"> <path d="M177.11081,386.42017Q176.17654,386.73016,175.71207,387.59802Q175.27003,388.4775,175.55461,389.4199Q175.86337,390.35464,176.73055,390.8203Q177.60947,391.26352,178.55219,390.98026Q179.48743,390.67273,179.9542,389.8062Q180.39864,388.92786,180.11667,387.98483Q179.8104,387.0491,178.94452,386.58118Q178.05109,386.1321,177.11336,386.41937"/> </g> <g style="fill:rgb(0,0,0); fill-opacity:1.0; stroke-linejoin: miter"> <path d="M174.1035,399.3579Q169.5959,399.2251,169.71562,409.0747L186.2489,404.08734Q181.1979,401.39468,178.65962,400.42267Q175.86671,399.32813,174.12529,399.35748"/> </g> </g> </svg>